<?xml version="1.0" encoding="UTF-8"?><svg id="_レイヤー_2" xmlns="http://www.w3.org/2000/svg" viewBox="0 0 184.27 16.04"><defs><style>.cls-1{fill:#fff;stroke-width:0px;}</style></defs><g id="_レイヤー_1-2"><path class="cls-1" d="m6.37,12.47H0V.74h1.34v10.55h5.03v1.18Z"/><path class="cls-1" d="m7.63,8.13c0-2.75,1.54-4.51,3.86-4.51s3.71,1.76,3.71,4.23v.59h-6.23v.42c0,1.57.96,2.71,2.59,2.71,1.1,0,1.98-.56,2.43-1.54l.91.66c-.54,1.18-1.78,2-3.41,2-2.34,0-3.87-1.78-3.87-4.55Zm1.34-.66h4.85v-.16c0-1.58-.94-2.62-2.34-2.62-1.47,0-2.51,1.12-2.51,2.69v.1Z"/><path class="cls-1" d="m16.78,10.05c0-1.62,1.17-2.53,3.67-2.53h1.75v-.86c0-1.26-.69-1.95-2.08-1.95-1.06,0-1.76.51-2.24,1.31l-.77-.72c.48-.93,1.52-1.7,3.07-1.7,2.08,0,3.3,1.09,3.3,2.91v4.83h.99v1.12h-.69c-1.01,0-1.41-.61-1.5-1.41h-.08c-.37,1.06-1.31,1.62-2.53,1.62-1.82,0-2.88-1.01-2.88-2.62Zm5.41-.11v-1.46h-1.81c-1.55,0-2.26.5-2.26,1.34v.35c0,.91.69,1.41,1.76,1.41,1.33,0,2.31-.72,2.31-1.65Z"/><path class="cls-1" d="m26.45,12.47V3.81h1.28v1.58h.08c.29-.83,1.09-1.58,2.51-1.58h.54v1.28h-.8c-1.44,0-2.34.64-2.34,1.49v5.89h-1.28Z"/><path class="cls-1" d="m32.59,12.47V3.81h1.28v1.39h.06c.42-.96,1.17-1.58,2.46-1.58,1.78,0,2.9,1.18,2.9,3.28v5.57h-1.28v-5.31c0-1.58-.69-2.39-1.98-2.39-1.1,0-2.16.54-2.16,1.7v6h-1.28Z"/><path class="cls-1" d="m41.97.99v-.21c0-.43.24-.72.78-.72s.78.29.78.72v.21c0,.43-.24.72-.78.72s-.78-.29-.78-.72Zm.13,11.48V3.81h1.28v8.66h-1.28Z"/><path class="cls-1" d="m46.29,12.47V3.81h1.28v1.39h.06c.42-.96,1.17-1.58,2.46-1.58,1.78,0,2.9,1.18,2.9,3.28v5.57h-1.28v-5.31c0-1.58-.69-2.39-1.98-2.39-1.1,0-2.16.54-2.16,1.7v6h-1.28Z"/><path class="cls-1" d="m55.07,13.89c0-.94.54-1.46,1.39-1.7v-.18c-.48-.24-.77-.62-.77-1.22,0-.86.62-1.28,1.49-1.49v-.08c-1.02-.48-1.62-1.44-1.62-2.66,0-1.76,1.26-2.96,3.23-2.96.62,0,1.2.11,1.66.34v-.19c0-.66.27-1.12.98-1.12h1.31v1.12h-1.65v.61c.61.53.98,1.3.98,2.21,0,1.78-1.3,2.99-3.27,2.99-.29,0-.58-.03-.85-.1-.59.18-1.17.45-1.17,1.01,0,.51.53.66,1.34.66h1.87c2.13,0,3.06.88,3.06,2.29,0,1.78-1.41,2.61-4.18,2.61s-3.83-.79-3.83-2.15Zm4.37,1.1c1.54,0,2.43-.48,2.43-1.47,0-.72-.46-1.18-1.84-1.18h-2.88c-.59.26-.88.67-.88,1.23,0,.8.54,1.42,1.95,1.42h1.22Zm1.3-8.18v-.46c0-1.17-.74-1.71-1.92-1.71s-1.9.54-1.9,1.71v.46c0,1.18.72,1.73,1.9,1.73s1.92-.54,1.92-1.73Z"/><path class="cls-1" d="m76.48,2.34h-3.55v10.13h-1.81V2.34h-3.55V.74h8.92v1.6Z"/><path class="cls-1" d="m78.21,12.47V3.75h1.74v1.71h.08c.26-.88,1.01-1.71,2.4-1.71h.51v1.68h-.74c-1.44,0-2.26.51-2.26,1.42v5.62h-1.74Z"/><path class="cls-1" d="m83.93,10.07c0-1.71,1.26-2.61,3.71-2.61h1.62v-.75c0-1.1-.59-1.74-1.84-1.74-1.04,0-1.68.51-2.11,1.22l-1.04-.94c.56-.98,1.58-1.7,3.25-1.7,2.24,0,3.49,1.12,3.49,3.04v4.47h.93v1.42h-.96c-.96,0-1.46-.61-1.57-1.46h-.08c-.34,1.09-1.3,1.66-2.56,1.66-1.81,0-2.83-1.02-2.83-2.61Zm5.33-.18v-1.31h-1.58c-1.33,0-1.95.45-1.95,1.22v.32c0,.82.58,1.23,1.54,1.23,1.14,0,2-.58,2-1.46Z"/><path class="cls-1" d="m93.79,12.47V3.75h1.75v1.42h.06c.38-.94,1.14-1.62,2.46-1.62,1.79,0,2.85,1.22,2.85,3.36v5.55h-1.74v-5.31c0-1.41-.56-2.13-1.7-2.13-1.01,0-1.94.5-1.94,1.55v5.89h-1.75Z"/><path class="cls-1" d="m102.7,11.03l1.15-1.04c.64.82,1.42,1.28,2.46,1.28,1.11,0,1.67-.45,1.67-1.23,0-.61-.35-1.01-1.31-1.15l-.8-.1c-1.75-.24-2.85-.99-2.85-2.58,0-1.7,1.33-2.67,3.22-2.67,1.57,0,2.47.53,3.23,1.39l-1.07,1.02c-.46-.54-1.2-1.01-2.16-1.01-1.02,0-1.54.45-1.54,1.14s.45,1.02,1.41,1.18l.8.1c1.91.27,2.75,1.12,2.75,2.53,0,1.68-1.34,2.79-3.43,2.79-1.63,0-2.71-.62-3.54-1.65Z"/><path class="cls-1" d="m112.22,12.47v-7.3h-1.36v-1.42h1.36v-1.54c0-1.34.72-2.18,2.13-2.18h1.44v1.42h-1.82v2.29h1.82v1.42h-1.82v7.3h-1.75Z"/><path class="cls-1" d="m116.8,8.1c0-2.79,1.57-4.56,3.99-4.56s4,1.78,4,4.56-1.57,4.58-4,4.58-3.99-1.78-3.99-4.58Zm6.15.74v-1.46c0-1.57-.86-2.39-2.16-2.39s-2.14.82-2.14,2.39v1.46c0,1.57.86,2.38,2.14,2.38s2.16-.82,2.16-2.38Z"/><path class="cls-1" d="m126.85,12.47V3.75h1.74v1.71h.08c.26-.88,1.01-1.71,2.4-1.71h.51v1.68h-.74c-1.44,0-2.26.51-2.26,1.42v5.62h-1.74Z"/><path class="cls-1" d="m133.23,12.47V3.75h1.74v1.42h.06c.37-.88,1.02-1.62,2.37-1.62,1.17,0,2.14.54,2.58,1.76h.05c.32-.98,1.23-1.76,2.66-1.76,1.76,0,2.75,1.22,2.75,3.36v5.55h-1.75v-5.31c0-1.41-.51-2.13-1.65-2.13-.96,0-1.84.5-1.84,1.55v5.89h-1.74v-5.31c0-1.42-.53-2.13-1.65-2.13-.93,0-1.84.5-1.84,1.55v5.89h-1.74Z"/><path class="cls-1" d="m147.37,10.07c0-1.71,1.26-2.61,3.71-2.61h1.62v-.75c0-1.1-.59-1.74-1.84-1.74-1.04,0-1.68.51-2.11,1.22l-1.04-.94c.56-.98,1.58-1.7,3.25-1.7,2.24,0,3.49,1.12,3.49,3.04v4.47h.93v1.42h-.96c-.96,0-1.46-.61-1.57-1.46h-.08c-.34,1.09-1.3,1.66-2.56,1.66-1.81,0-2.83-1.02-2.83-2.61Zm5.33-.18v-1.31h-1.58c-1.33,0-1.95.45-1.95,1.22v.32c0,.82.58,1.23,1.54,1.23,1.14,0,2-.58,2-1.46Z"/><path class="cls-1" d="m159.55,12.47c-1.22,0-1.84-.7-1.84-1.84v-5.46h-1.38v-1.42h.75c.59,0,.78-.24.78-.83v-1.57h1.58v2.4h1.83v1.42h-1.83v5.87h1.7v1.42h-1.6Z"/><path class="cls-1" d="m163.13,1.18v-.27c0-.54.32-.91,1.04-.91s1.04.37,1.04.91v.27c0,.53-.32.9-1.04.9s-1.04-.37-1.04-.9Zm.16,11.28V3.75h1.75v8.72h-1.75Z"/><path class="cls-1" d="m167.1,8.1c0-2.79,1.57-4.56,3.99-4.56s4,1.78,4,4.56-1.57,4.58-4,4.58-3.99-1.78-3.99-4.58Zm6.15.74v-1.46c0-1.57-.87-2.39-2.16-2.39s-2.15.82-2.15,2.39v1.46c0,1.57.87,2.38,2.15,2.38s2.16-.82,2.16-2.38Z"/><path class="cls-1" d="m177.15,12.47V3.75h1.74v1.42h.06c.38-.94,1.14-1.62,2.46-1.62,1.79,0,2.85,1.22,2.85,3.36v5.55h-1.75v-5.31c0-1.41-.56-2.13-1.7-2.13-1.01,0-1.94.5-1.94,1.55v5.89h-1.74Z"/></g></svg>